<svg id="Layer_1" data-name="Layer 1" xmlns="http://www.w3.org/2000/svg" xmlns:xlink="http://www.w3.org/1999/xlink" viewBox="0 0 1024 1024"><defs><style>.cls-1{fill:#db1f2d;}.cls-2{fill:#ec1c24;}.cls-3{fill:url(#linear-gradient);}</style><linearGradient id="linear-gradient" x1="892.24" y1="512.09" x2="817.69" y2="604.76" gradientUnits="userSpaceOnUse"><stop offset="0.03" stop-color="#f28320"/><stop offset="0.97" stop-color="#ec1c24"/></linearGradient></defs><title>Artboard 1logo svg</title><path class="cls-1" d="M976.85,597.51l-35.21.9c-10.63.27-24.68-7.24-31.4-16.78l-108-153.42c-.79-1.12-.42-2,.83-2.08l39.25-1c10.66-.28,24.77,7.26,31.51,16.84L979.19,591.64C981.41,594.79,980.37,597.42,976.85,597.51Z"/><path class="cls-2" d="M977.62,426,898.93,540.58l-5.4,7.86-.32.46-17.68,25.75-5.51,8c-.34.51-.71,1-1.09,1.49h0c-.38.49-.78,1-1.19,1.45-7.26,8.29-19.56,14.44-29.12,14.2l-35.33-.87c-3-.08-4.21-2-3.15-4.59a4.5,4.5,0,0,1,.3-.63,7.39,7.39,0,0,1,.48-.77l105-152.8c6.72-9.78,20.83-17.48,31.52-17.22l39.38,1C978,423.94,978.4,424.89,977.62,426Z"/><path class="cls-3" d="M893.24,549.14l-5.41,7.79-12.3,17.72-6.6,9.5h0c-.38.49-.78,1-1.19,1.45-7.26,8.29-19.56,14.44-29.12,14.2l-35.33-.87c-3-.08-4.21-2-3.15-4.59l51-74.31,38.54-15.61,3.5,44.47,0,.16Z"/><polygon points="192.28 446.56 179.79 446.56 118.29 584.33 56.79 446.56 43.64 446.56 112.01 599.95 112.12 600.2 123.8 600.2 192.02 447.16 192.28 446.56"/><path d="M228.74,484.54c-31.87,0-55,24.5-55,58.27,0,16.49,5.88,31.38,16.56,41.91s25.81,16.35,42.58,16.35c17.77,0,33.57-6.81,43.33-18.7l.23-.28-6.9-7.85-.31.39c-8.31,10.17-21.14,15.77-36.13,15.77-26.93,0-46.53-18.29-47.79-44.55h98v-.42a15.08,15.08,0,0,1,.12-1.66c0-.49.1-1,.1-1.4C283.51,508.86,260.48,484.54,228.74,484.54Zm-43.2,51.95c1.92-24.46,19.62-41.5,43.2-41.5,23.78,0,41.48,17,43.2,41.5Z"/><path d="M359.48,484.54c-20.4,0-36.61,8.79-44.76,24.18V485.41H303.4V600.2h11.76V539.1c0-27.07,16.4-43.89,42.79-43.89,23.52,0,36.47,13.8,36.47,38.87V600.2h11.76v-67c0-15.62-4.33-27.86-12.87-36.37C385.24,488.79,373.54,484.54,359.48,484.54Z"/><path d="M482,584.62a25.73,25.73,0,0,1-17.4,6.22c-13.57,0-20.74-7.7-20.74-22.28V495.65h36.23V485.41H443.83V460.53H432.06v24.88H411.11v10.24h20.95v74c0,20,11.45,31.41,31.42,31.41,9.47,0,18.31-3.06,23.65-8.19l.25-.23-5-8.38Z"/><path d="M587.77,546.52c0,27.07-15.81,43.88-41.26,43.88-23.94,0-37.12-13.8-37.12-38.86V485.41H497.62v67c0,30.93,17.5,48.66,48,48.66,19.32,0,34.73-8.68,42.58-23.91v23h11.33V485.41H587.77Z"/><path d="M673.53,496.08V484.54h-.43c-20.72,0-35.54,8.35-43,24.19V485.41H618.77V600.2h11.76V540.41c0-27.89,14.94-44.54,40-44.54a11,11,0,0,1,1.26.1,10.11,10.11,0,0,0,1.36.11Z"/><path d="M726.8,484.54c-31.86,0-55,24.5-55,58.27,0,16.49,5.88,31.38,16.55,41.91s25.81,16.35,42.59,16.35c17.77,0,33.56-6.81,43.33-18.7l.23-.28-6.9-7.85-.32.39C759,584.8,746.16,590.4,731.17,590.4c-26.94,0-46.53-18.29-47.8-44.55h98v-.42c0-.56.06-1.12.11-1.66a11.76,11.76,0,0,0,.11-1.4C781.58,508.86,758.54,484.54,726.8,484.54Zm-43.2,51.95C685.52,512,703.23,495,726.8,495c23.78,0,41.48,17,43.2,41.5Z"/></svg>