<?xml version="1.0" encoding="UTF-8"?>
<!DOCTYPE svg PUBLIC "-//W3C//DTD SVG 1.1//EN" "http://www.w3.org/Graphics/SVG/1.1/DTD/svg11.dtd">
<svg version="1.2" width="255.59mm" height="163.67mm" viewBox="0 0 25559 16367" preserveAspectRatio="xMidYMid" fill-rule="evenodd" stroke-width="28.222" stroke-linejoin="round" xmlns="http://www.w3.org/2000/svg" xmlns:ooo="http://xml.openoffice.org/svg/export" xmlns:xlink="http://www.w3.org/1999/xlink" xmlns:presentation="http://sun.com/xmlns/staroffice/presentation" xmlns:smil="http://www.w3.org/2001/SMIL20/" xmlns:anim="urn:oasis:names:tc:opendocument:xmlns:animation:1.0" xml:space="preserve">
 <defs class="ClipPathGroup">
  <clipPath id="presentation_clip_path" clipPathUnits="userSpaceOnUse">
   <rect x="0" y="0" width="25559" height="16367"/>
  </clipPath>
  <clipPath id="presentation_clip_path_shrink" clipPathUnits="userSpaceOnUse">
   <rect x="25" y="16" width="25508" height="16335"/>
  </clipPath>
 </defs>
 <defs class="TextShapeIndex">
  <g ooo:slide="id1" ooo:id-list="id3"/>
 </defs>
 <defs class="EmbeddedBulletChars">
  <g id="bullet-char-template-57356" transform="scale(0.00048828125,-0.00048828125)">
   <path d="M 580,1141 L 1163,571 580,0 -4,571 580,1141 Z"/>
  </g>
  <g id="bullet-char-template-57354" transform="scale(0.00048828125,-0.00048828125)">
   <path d="M 8,1128 L 1137,1128 1137,0 8,0 8,1128 Z"/>
  </g>
  <g id="bullet-char-template-10146" transform="scale(0.00048828125,-0.00048828125)">
   <path d="M 174,0 L 602,739 174,1481 1456,739 174,0 Z M 1358,739 L 309,1346 659,739 1358,739 Z"/>
  </g>
  <g id="bullet-char-template-10132" transform="scale(0.00048828125,-0.00048828125)">
   <path d="M 2015,739 L 1276,0 717,0 1260,543 174,543 174,936 1260,936 717,1481 1274,1481 2015,739 Z"/>
  </g>
  <g id="bullet-char-template-10007" transform="scale(0.00048828125,-0.00048828125)">
   <path d="M 0,-2 C -7,14 -16,27 -25,37 L 356,567 C 262,823 215,952 215,954 215,979 228,992 255,992 264,992 276,990 289,987 310,991 331,999 354,1012 L 381,999 492,748 772,1049 836,1024 860,1049 C 881,1039 901,1025 922,1006 886,937 835,863 770,784 769,783 710,716 594,584 L 774,223 C 774,196 753,168 711,139 L 727,119 C 717,90 699,76 672,76 641,76 570,178 457,381 L 164,-76 C 142,-110 111,-127 72,-127 30,-127 9,-110 8,-76 1,-67 -2,-52 -2,-32 -2,-23 -1,-13 0,-2 Z"/>
  </g>
  <g id="bullet-char-template-10004" transform="scale(0.00048828125,-0.00048828125)">
   <path d="M 285,-33 C 182,-33 111,30 74,156 52,228 41,333 41,471 41,549 55,616 82,672 116,743 169,778 240,778 293,778 328,747 346,684 L 369,508 C 377,444 397,411 428,410 L 1163,1116 C 1174,1127 1196,1133 1229,1133 1271,1133 1292,1118 1292,1087 L 1292,965 C 1292,929 1282,901 1262,881 L 442,47 C 390,-6 338,-33 285,-33 Z"/>
  </g>
  <g id="bullet-char-template-9679" transform="scale(0.00048828125,-0.00048828125)">
   <path d="M 813,0 C 632,0 489,54 383,161 276,268 223,411 223,592 223,773 276,916 383,1023 489,1130 632,1184 813,1184 992,1184 1136,1130 1245,1023 1353,916 1407,772 1407,592 1407,412 1353,268 1245,161 1136,54 992,0 813,0 Z"/>
  </g>
  <g id="bullet-char-template-8226" transform="scale(0.00048828125,-0.00048828125)">
   <path d="M 346,457 C 273,457 209,483 155,535 101,586 74,649 74,723 74,796 101,859 155,911 209,963 273,989 346,989 419,989 480,963 531,910 582,859 608,796 608,723 608,648 583,586 532,535 482,483 420,457 346,457 Z"/>
  </g>
  <g id="bullet-char-template-8211" transform="scale(0.00048828125,-0.00048828125)">
   <path d="M -4,459 L 1135,459 1135,606 -4,606 -4,459 Z"/>
  </g>
  <g id="bullet-char-template-61548" transform="scale(0.00048828125,-0.00048828125)">
   <path d="M 173,740 C 173,903 231,1043 346,1159 462,1274 601,1332 765,1332 928,1332 1067,1274 1183,1159 1299,1043 1357,903 1357,740 1357,577 1299,437 1183,322 1067,206 928,148 765,148 601,148 462,206 346,322 231,437 173,577 173,740 Z"/>
  </g>
 </defs>
 <g>
  <g id="id2" class="Master_Slide">
   <g id="bg-id2" class="Background"/>
   <g id="bo-id2" class="BackgroundObjects"/>
  </g>
 </g>
 <g class="SlideGroup">
  <g>
   <g id="container-id1">
    <g id="id1" class="Slide" clip-path="url(#presentation_clip_path)">
     <g class="Page">
      <g class="Graphic">
       <title>instat_analysis
       </title>
       <g id="id3">
        <rect class="BoundingBox" stroke="none" fill="none" x="-476" y="1352" width="27829" height="14053"/>
        <defs>
         <clipPath id="clip_path_1" clipPathUnits="userSpaceOnUse">
          <path d="M -476,1352 L 27352,1352 27352,15404 -476,15404 -476,1352 Z"/>
         </clipPath>
        </defs>
        <g clip-path="url(#clip_path_1)"/>
        <defs>
         <clipPath id="clip_path_2" clipPathUnits="userSpaceOnUse">
          <path d="M -476,1352 L 27352,1352 27352,15404 -476,15404 -476,1352 Z"/>
         </clipPath>
        </defs>
        <g clip-path="url(#clip_path_2)">
         <path fill="rgb(230,230,230)" stroke="none" d="M 15673,6464 C 15648,6524 15623,6586 15599,6647 L 15537,6623 C 15561,6561 15586,6499 15612,6438 L 15673,6464 Z"/>
         <path fill="rgb(230,230,230)" stroke="none" d="M 26542,10853 C 26510,10936 26476,11019 26441,11100 L 26380,11073 C 26433,10953 26483,10827 26528,10702 L 26590,10725 C 26575,10767 26559,10810 26542,10853 Z M 26714,10340 L 26650,10322 C 26686,10194 26718,10064 26746,9934 L 26810,9948 C 26783,10079 26750,10211 26714,10340 Z M 26267,11464 C 26205,11584 26138,11702 26069,11816 L 26012,11782 C 26081,11669 26147,11552 26208,11434 L 26267,11464 Z M 26814,9541 C 26833,9409 26847,9276 26856,9143 L 26922,9148 C 26913,9282 26899,9417 26880,9550 L 26814,9541 Z M 25846,12154 C 25769,12263 25686,12371 25601,12475 L 25550,12433 C 25634,12330 25716,12223 25792,12115 L 25846,12154 Z M 26936,8744 L 26870,8744 C 26870,8612 26866,8478 26857,8346 L 26923,8341 C 26932,8475 26937,8610 26936,8744 L 26936,8744 Z M 25334,12779 C 25242,12877 25145,12972 25047,13063 L 25002,13015 C 25099,12925 25195,12830 25286,12733 L 25334,12779 Z M 26882,7940 L 26816,7949 C 26798,7817 26775,7685 26748,7555 L 26813,7542 C 26840,7673 26863,7807 26882,7940 L 26882,7940 Z M 24741,13328 C 24636,13412 24527,13493 24417,13570 L 24379,13516 C 24488,13440 24596,13359 24699,13276 L 24741,13328 Z M 26717,7149 L 26653,7167 C 26617,7040 26577,6912 26532,6787 L 26595,6765 C 26640,6891 26681,7020 26717,7149 L 26717,7149 Z M 24078,13790 C 23963,13859 23844,13925 23725,13986 L 23695,13927 C 23813,13867 23930,13801 24044,13733 L 24078,13790 Z M 26446,6389 L 26386,6415 C 26333,6294 26275,6172 26214,6054 L 26273,6024 C 26335,6143 26393,6266 26446,6389 L 26446,6389 Z M 23359,14157 C 23235,14210 23109,14259 22982,14304 L 22960,14241 C 23085,14197 23211,14149 23333,14097 L 23359,14157 Z M 26075,5672 L 26018,5706 C 25949,5593 25875,5480 25799,5372 L 25853,5334 C 25930,5443 26005,5557 26075,5672 Z M 22597,14424 C 22467,14459 22335,14491 22204,14517 L 22191,14453 C 22320,14426 22451,14395 22579,14360 L 22597,14424 Z M 25609,5012 L 25557,5053 C 25473,4951 25385,4849 25294,4752 L 25343,4707 C 25434,4805 25524,4908 25609,5012 L 25609,5012 Z M 21805,14584 C 21673,14601 21537,14615 21404,14623 L 21400,14557 C 21532,14549 21665,14536 21797,14518 L 21805,14584 Z M 25011,4470 C 24914,4379 24812,4291 24709,4208 L 24751,4156 C 24855,4241 24958,4330 25056,4421 L 25011,4470 Z M 21000,14634 C 20866,14633 20730,14628 20597,14618 L 20602,14552 C 20734,14562 20868,14567 21001,14568 L 21000,14634 Z M 24390,3967 C 24281,3891 24169,3818 24055,3749 L 24090,3693 C 24204,3762 24318,3836 24428,3913 L 24390,3967 Z M 20195,14573 C 20062,14554 19929,14530 19798,14501 L 19812,14436 C 19941,14465 20073,14489 20205,14508 L 20195,14573 Z M 23737,3496 L 23706,3555 C 23589,3495 23467,3437 23345,3385 L 23371,3324 C 23494,3377 23617,3435 23737,3496 Z M 19406,14402 C 19277,14365 19148,14323 19022,14277 L 19045,14214 C 19169,14260 19297,14302 19424,14339 L 19406,14402 Z M 22973,3240 C 22847,3196 22719,3155 22592,3120 L 22609,3056 C 22738,3092 22868,3133 22995,3177 L 22973,3240 Z M 22203,3026 C 22073,3000 21941,2977 21810,2960 L 21818,2894 C 21951,2912 22085,2934 22217,2961 L 22203,3026 Z M 21412,2920 C 21280,2912 21146,2908 21013,2908 L 21013,2842 C 21147,2842 21283,2846 21416,2854 L 21412,2920 Z M 20614,2924 C 20482,2934 20349,2948 20218,2967 L 20208,2902 C 20341,2883 20476,2868 20610,2858 L 20614,2924 Z M 19824,3037 C 19695,3065 19564,3098 19437,3134 L 19419,3071 C 19547,3034 19679,3001 19811,2973 L 19824,3037 Z M 19057,3257 C 18932,3303 18808,3353 18686,3406 L 18659,3346 C 18782,3291 18908,3241 19034,3195 L 19057,3257 Z M 18326,3580 C 18209,3642 18092,3708 17979,3778 L 17944,3721 C 18059,3651 18177,3584 18296,3521 L 18326,3580 Z M 17646,3999 C 17538,4076 17431,4158 17329,4242 L 17287,4191 C 17391,4106 17498,4023 17608,3945 L 17646,3999 Z M 17029,4507 C 16933,4598 16839,4694 16749,4791 L 16700,4747 C 16791,4648 16886,4551 16984,4459 L 17029,4507 Z M 16488,5095 C 16405,5198 16325,5306 16250,5415 L 16195,5377 C 16271,5267 16353,5158 16436,5054 L 16488,5095 Z M 16034,5751 C 15966,5865 15901,5983 15841,6101 L 15782,6071 C 15843,5952 15908,5832 15977,5717 L 16034,5751 Z"/>
         <path fill="rgb(230,230,230)" stroke="none" d="M 18665,14061 L 18638,14122 C 18577,14094 18516,14066 18457,14037 L 18486,13978 C 18545,14006 18605,14034 18665,14061 L 18665,14061 Z"/>
         <path fill="rgb(63,61,86)" stroke="none" d="M 8829,19140 L 907,19140 907,9034 16751,9034 16751,19140 8829,19140 Z"/>
         <path fill="rgb(230,230,230)" stroke="none" d="M 14626,19130 C 14618,19118 14439,18819 14377,18198 14320,17628 14356,16667 14855,15326 15799,12788 14637,10739 14625,10719 L 14683,10685 C 14686,10690 14985,11213 15162,12044 15248,12449 15292,12862 15292,13275 15292,13983 15165,14686 14917,15350 13974,17884 14675,19084 14682,19096 L 14626,19130 Z"/>
         <path fill="rgb(239,68,68)" stroke="none" d="M 14687,10139 C 14687,10215 14667,10289 14629,10354 14592,10420 14537,10474 14472,10512 14406,10550 14332,10569 14256,10569 14181,10569 14107,10550 14041,10512 13976,10474 13921,10420 13884,10354 13846,10289 13826,10215 13826,10139 13826,10063 13846,9989 13884,9924 13921,9858 13976,9804 14041,9766 14107,9728 14181,9708 14256,9708 14332,9708 14406,9728 14472,9766 14537,9804 14592,9858 14629,9924 14667,9989 14687,10063 14687,10139 L 14687,10139 Z"/>
         <path fill="rgb(230,230,230)" stroke="none" d="M 16045,11728 C 16045,11804 16025,11878 15987,11944 15949,12009 15895,12064 15830,12101 15764,12139 15690,12159 15614,12159 15539,12159 15465,12139 15399,12101 15334,12064 15279,12009 15241,11944 15204,11878 15184,11804 15184,11728 15184,11653 15204,11579 15241,11513 15279,11448 15334,11393 15399,11356 15465,11318 15539,11298 15614,11298 15690,11298 15764,11318 15830,11356 15895,11393 15949,11448 15987,11513 16025,11579 16045,11653 16045,11728 L 16045,11728 Z"/>
         <path fill="rgb(239,68,68)" stroke="none" d="M 15118,12788 C 15118,12864 15098,12938 15060,13003 15022,13069 14968,13123 14902,13161 14837,13199 14763,13219 14687,13219 14611,13219 14537,13199 14472,13161 14406,13123 14352,13069 14314,13003 14276,12938 14256,12864 14256,12788 14256,12713 14276,12638 14314,12573 14352,12507 14406,12453 14472,12415 14537,12378 14611,12358 14687,12358 14763,12358 14837,12378 14902,12415 14968,12453 15022,12507 15060,12573 15098,12638 15118,12713 15118,12788 L 15118,12788 Z"/>
         <path fill="rgb(239,68,68)" stroke="none" d="M 16244,13682 C 16244,13758 16224,13832 16186,13898 16148,13963 16094,14017 16028,14055 15963,14093 15889,14113 15813,14113 15737,14113 15663,14093 15598,14055 15532,14017 15478,13963 15440,13898 15402,13832 15383,13758 15383,13682 15383,13607 15402,13532 15440,13467 15478,13402 15532,13347 15598,13309 15663,13272 15737,13252 15813,13252 15889,13252 15963,13272 16028,13309 16094,13347 16148,13402 16186,13467 16224,13532 16244,13607 16244,13682 L 16244,13682 Z"/>
         <path fill="rgb(230,230,230)" stroke="none" d="M 14786,15073 C 14786,15149 14766,15223 14729,15288 14691,15354 14637,15408 14571,15446 14506,15484 14431,15504 14356,15504 14280,15504 14206,15484 14141,15446 14075,15408 14021,15354 13983,15288 13945,15223 13925,15149 13925,15073 13925,14998 13945,14923 13983,14858 14021,14792 14075,14738 14141,14700 14206,14663 14280,14643 14356,14643 14431,14643 14506,14663 14571,14700 14637,14738 14691,14792 14729,14858 14766,14923 14786,14998 14786,15073 L 14786,15073 Z"/>
         <path fill="rgb(230,230,230)" stroke="none" d="M 14886,19146 C 14886,19146 14455,18087 15747,17292 L 14886,19146 Z"/>
         <path fill="rgb(230,230,230)" stroke="none" d="M 14356,19127 C 14356,19127 14160,18000 12644,18010 L 14356,19127 Z"/>
         <path fill="rgb(239,68,68)" stroke="none" d="M 10051,11289 C 10154,11334 10254,11385 10351,11441 10575,11570 10781,11727 10965,11907 L 11231,11641 C 11024,11438 10792,11262 10541,11117 10414,11044 10284,10979 10149,10923 L 10051,11289 Z"/>
         <path fill="rgb(239,68,68)" stroke="none" d="M 5920,13157 C 5986,12951 6075,12752 6183,12564 6281,12394 6396,12234 6524,12086 L 6258,11820 C 6107,11991 5973,12177 5858,12375 5733,12592 5632,12822 5557,13060 L 5920,13157 Z"/>
         <path fill="rgb(230,230,230)" stroke="none" d="M 11555,12009 L 11287,12278 11287,12278 C 11355,12370 11418,12465 11475,12565 11592,12767 11685,12982 11753,13206 L 12115,13109 12115,13109 C 12039,12853 11933,12606 11799,12375 11726,12248 11644,12126 11555,12009 L 11555,12009 Z"/>
         <path fill="rgb(239,68,68)" stroke="none" d="M 6874,11743 C 7009,11630 7154,11529 7306,11441 7507,11325 7720,11233 7942,11165 L 7845,10803 C 7591,10879 7346,10984 7116,11117 6936,11221 6766,11341 6607,11476 L 6874,11743 Z"/>
         <path fill="rgb(239,68,68)" stroke="none" d="M 5775,14087 L 5775,14087 C 5775,14087 5775,14087 5775,14087 5775,13935 5786,13784 5809,13635 L 5445,13537 5445,13537 C 5415,13719 5401,13903 5401,14087 5401,14376 5437,14663 5508,14942 L 5871,14845 5871,14845 C 5807,14598 5775,14344 5775,14089 5775,14088 5775,14088 5775,14087 L 5775,14087 Z"/>
         <path fill="rgb(230,230,230)" stroke="none" d="M 9581,17046 C 9336,17109 9084,17140 8830,17140 8830,17140 8829,17140 8829,17140 8735,17140 8642,17136 8550,17127 L 8452,17494 C 8577,17508 8703,17515 8829,17515 9116,17515 9401,17479 9678,17409 L 9581,17046 Z"/>
         <path fill="rgb(239,68,68)" stroke="none" d="M 5664,15407 C 5721,15542 5785,15672 5858,15799 6014,16067 6205,16314 6426,16532 L 6692,16266 C 6493,16071 6322,15850 6183,15609 6127,15512 6076,15412 6031,15309 L 5664,15407 Z"/>
         <path fill="rgb(230,230,230)" stroke="none" d="M 12221,13588 L 11856,13685 C 11874,13818 11882,13952 11882,14087 11882,14285 11863,14482 11825,14676 L 12188,14774 C 12234,14548 12257,14318 12257,14087 12257,13920 12245,13753 12221,13588 L 12221,13588 Z"/>
         <path fill="rgb(239,68,68)" stroke="none" d="M 8421,11061 C 8556,11043 8693,11034 8829,11034 9085,11034 9339,11066 9587,11129 L 9684,10767 C 9405,10695 9117,10659 8829,10659 8660,10659 8491,10672 8323,10696 L 8421,11061 Z"/>
         <path fill="rgb(230,230,230)" stroke="none" d="M 8065,17044 C 7800,16975 7544,16870 7307,16733 7225,16686 7146,16635 7070,16581 L 6800,16850 C 6902,16925 7008,16994 7117,17057 7384,17211 7670,17329 7968,17406 L 8065,17044 Z"/>
         <path fill="rgb(230,230,230)" stroke="none" d="M 11142,16617 L 10876,16350 C 10715,16496 10539,16624 10352,16733 10253,16790 10150,16841 10046,16887 L 10144,17253 C 10280,17196 10413,17131 10541,17057 10757,16932 10958,16785 11142,16617 Z"/>
         <path fill="rgb(230,230,230)" stroke="none" d="M 11692,15148 C 11633,15307 11560,15462 11475,15609 11397,15744 11309,15872 11212,15994 L 11479,16261 C 11598,16116 11705,15962 11799,15799 11901,15622 11987,15437 12056,15245 L 11692,15148 Z"/>
         <path fill="rgb(230,230,230)" stroke="none" d="M 2088,10270 L 1252,10270 1252,9608 2923,9608 2923,10270 2088,10270 Z"/>
         <path fill="rgb(239,68,68)" stroke="none" d="M 2088,11278 L 1252,11278 1252,10616 2923,10616 2923,11278 2088,11278 Z"/>
         <path fill="rgb(255,185,185)" stroke="none" d="M 11363,2957 C 11363,2957 11551,3576 11444,3764 11336,3952 11632,4355 12116,4167 12600,3979 12626,3764 12626,3764 12626,3764 12438,3468 12384,2850 L 11363,2957 Z"/>
         <path fill="rgb(255,185,185)" stroke="none" d="M 8903,9019 C 8903,9019 7935,9503 8366,10148 8616,10523 9093,11252 9448,11797 L 9448,11797 C 9503,11881 9556,11966 9606,12053 9828,12437 10002,12847 10126,13274 L 10194,13508 10462,13830 11027,13185 C 11027,13185 10194,11653 10194,11357 10194,11062 9522,10121 9522,10121 L 10194,9691 C 10194,9691 9441,8831 8903,9019 L 8903,9019 Z"/>
         <path fill="rgb(255,185,185)" stroke="none" d="M 12048,10685 C 12048,10685 12075,11438 12102,11734 12124,11978 11909,12661 11983,13420 12004,13640 12014,13860 12014,14081 12014,14354 11998,14626 11967,14897 L 11860,15873 12667,15954 12936,13750 C 12936,13750 13097,12191 13016,11680 L 13043,10605 C 13043,10605 12452,10390 12048,10685 Z"/>
         <path fill="rgb(47,46,65)" stroke="none" d="M 10610,7554 C 10610,7554 8729,8763 8702,9140 8702,9140 9777,9032 9804,9973 9804,9973 10449,9731 10610,9677 10772,9624 11632,9059 11632,9059 11632,9059 11981,9328 11981,9758 11981,10188 11954,10941 11981,10994 12008,11048 12626,10269 13137,10941 L 13487,9086 C 13487,9086 13594,7957 13379,7876 L 11874,7312 10610,7554 Z"/>
         <path fill="rgb(255,185,185)" stroke="none" d="M 12559,2487 C 12559,2629 12522,2768 12451,2890 12380,3013 12279,3115 12156,3185 12033,3256 11894,3293 11753,3293 11611,3293 11472,3256 11350,3185 11227,3115 11125,3013 11054,2890 10984,2768 10946,2629 10946,2487 10946,2346 10984,2206 11054,2084 11125,1961 11227,1859 11350,1789 11472,1718 11611,1681 11753,1681 11894,1681 12033,1718 12156,1789 12279,1859 12380,1961 12451,2084 12522,2206 12559,2346 12559,2487 L 12559,2487 Z"/>
         <path fill="rgb(208,205,225)" stroke="none" d="M 11551,3898 C 11551,3898 12461,4138 12584,3682 12584,3682 13702,3898 13890,4624 14078,5350 13433,7097 13433,7151 13433,7204 13971,7527 13729,7688 13487,7850 13272,7661 13379,7876 13487,8091 13675,8145 13514,8199 13352,8253 12384,7419 11632,7634 10879,7850 10503,7688 10503,7688 L 10165,4772 10165,4772 C 10162,4745 10161,4719 10161,4693 10161,4574 10192,4458 10251,4356 10291,4286 10343,4225 10405,4174 10573,4035 10797,3885 11013,3844 11444,3764 11461,3720 11461,3720 L 11551,3898 Z"/>
         <path fill="rgb(255,185,185)" stroke="none" d="M 10691,8602 C 10691,8602 10933,9973 11255,9785 11578,9597 11175,8602 11175,8602 L 10691,8602 Z"/>
         <path fill="rgb(255,185,185)" stroke="none" d="M 11814,8780 C 11814,8780 11395,10107 11768,10089 12141,10071 12243,9003 12243,9003 L 11814,8780 Z"/>
         <path fill="rgb(47,46,65)" stroke="none" d="M 10328,13454 C 10328,13454 10140,13239 10032,13535 9925,13830 9629,14207 9629,14207 9629,14207 8984,14932 9441,14959 9898,14986 10543,14314 10543,14314 L 11296,13615 C 11296,13615 11046,13008 10929,13002 10812,12997 10839,13723 10328,13454 L 10328,13454 Z"/>
         <path fill="rgb(47,46,65)" stroke="none" d="M 12075,15685 C 12075,15685 11886,15740 11900,15511 11900,15511 11215,15873 11403,16142 11591,16411 11807,16679 11807,16679 11807,16679 12801,17244 12882,17110 12962,16975 12962,16706 12909,16599 12855,16491 12586,16303 12667,16142 12747,15981 12640,15551 12505,15551 12371,15551 12075,15685 12075,15685 L 12075,15685 Z"/>
         <path fill="rgb(47,46,65)" stroke="none" d="M 11049,1804 C 11049,1804 11308,1242 11806,1371 12303,1501 12584,1696 12606,1890 12627,2085 12595,2377 12595,2377 12595,2377 12541,1977 12195,2063 11849,2150 11308,2085 11308,2085 L 11222,2863 C 11222,2863 11125,2723 11017,2809 10908,2895 10703,1977 11049,1804 L 11049,1804 Z"/>
         <path fill="rgb(208,205,225)" stroke="none" d="M 13433,4597 C 13433,4597 12788,6344 12841,6559 12895,6774 12841,6801 12761,6855 12680,6909 12465,7473 12465,7473 12465,7473 12331,7796 12223,7876 12116,7957 12116,8172 12116,8172 12116,8172 11847,8441 11901,8495 11954,8548 11954,8629 11847,8710 11739,8790 11632,8898 11686,8925 11739,8952 12116,9247 12223,9220 12331,9194 12169,9086 12304,9032 12438,8978 12519,8898 12465,8871 12411,8844 12250,8844 12411,8790 12573,8737 13137,8387 13325,7957 13514,7527 14415,4925 13870,4559 13870,4559 13648,4275 13433,4597 L 13433,4597 Z"/>
         <path fill="rgb(208,205,225)" stroke="none" d="M 10449,4301 L 10438,4306 C 10411,4317 10385,4330 10360,4345 10257,4404 10172,4489 10112,4592 10076,4655 10051,4722 10036,4793 9977,5074 9919,5480 9965,5860 10046,6532 10099,6828 10207,7043 10315,7258 10341,7178 10315,7339 10288,7500 10153,7366 10288,7581 10422,7796 10503,7742 10449,7850 10395,7957 10315,7957 10422,8091 10530,8226 10530,8280 10556,8333 10583,8387 10664,8790 10664,8790 10664,8790 11094,8656 11336,8710 11336,8710 11121,8333 11175,8253 11229,8172 11309,8145 11229,8065 11148,7984 11013,8011 11148,7930 11282,7850 11040,7016 11040,7016 L 10449,4301 Z"/>
         <path fill="rgb(63,61,86)" stroke="none" d="M 13438,19171 L -476,19171 -476,19113 27352,19113 27352,19171 13438,19171 Z"/>
         <path fill="rgb(63,61,86)" stroke="none" d="M 17752,10473 L 17710,10433 20871,7079 23444,7079 23444,7137 20896,7137 17752,10473 17752,10473 Z"/>
         <path fill="rgb(239,68,68)" stroke="none" d="M 23212,7623 L 21694,7623 21694,7520 24731,7520 24731,7623 23212,7623 Z"/>
         <path fill="rgb(239,68,68)" stroke="none" d="M 23212,8060 L 21694,8060 21694,7957 24731,7957 24731,8060 23212,8060 Z"/>
         <path fill="rgb(239,68,68)" stroke="none" d="M 23212,8498 L 21694,8498 21694,8395 24731,8395 24731,8498 23212,8498 Z"/>
         <path fill="rgb(239,68,68)" stroke="none" d="M 22895,16005 L 21377,16005 21377,15902 24414,15902 24414,16005 22895,16005 Z"/>
         <path fill="rgb(239,68,68)" stroke="none" d="M 22895,16442 L 21377,16442 21377,16339 24414,16339 24414,16442 22895,16442 Z"/>
         <path fill="rgb(239,68,68)" stroke="none" d="M 22895,16880 L 21377,16880 21377,16777 24414,16777 24414,16880 22895,16880 Z"/>
         <path fill="rgb(63,61,86)" stroke="none" d="M 23117,15386 L 20077,15386 20069,15373 17707,11945 17754,11913 20108,15328 23117,15328 23117,15386 23117,15386 Z"/>
        </g>
        <g clip-path="url(#clip_path_1)"/>
       </g>
      </g>
     </g>
    </g>
   </g>
  </g>
 </g>
</svg>