<svg id="Layer_1" data-name="Layer 1" xmlns="http://www.w3.org/2000/svg" xmlns:xlink="http://www.w3.org/1999/xlink" viewBox="0 0 1024 1024"><defs><style>.cls-1{fill:#231f20;}.cls-2{fill:url(#linear-gradient);}</style><linearGradient id="linear-gradient" x1="914.01" y1="521.52" x2="824.6" y2="610.94" gradientUnits="userSpaceOnUse"><stop offset="0" stop-color="#404041"/><stop offset="0.12" stop-color="#3b3a3b"/><stop offset="0.63" stop-color="#292627"/><stop offset="0.97" stop-color="#231f20"/></linearGradient></defs><title>Artboard 2logo svg</title><path class="cls-1" d="M1004.63,602.62l-37.32,1c-11.26.28-26.15-7.68-33.27-17.79L819.58,423.2c-.83-1.18-.44-2.17.88-2.2l41.6-1.07c11.3-.29,26.25,7.71,33.39,17.85L1007.11,596.4C1009.46,599.74,1008.35,602.53,1004.63,602.62Z"/><path class="cls-1" d="M1005.44,420.89l-83.39,121.4-5.72,8.33-.34.48-18.74,27.29-5.84,8.5c-.36.53-.75,1.05-1.16,1.58h0c-.41.52-.83,1-1.27,1.53-7.69,8.79-20.72,15.31-30.86,15.06l-37.44-.93c-3.17-.08-4.46-2.14-3.33-4.86a6.53,6.53,0,0,1,.31-.66,9.16,9.16,0,0,1,.51-.82L929.41,435.85c7.11-10.35,22.07-18.52,33.4-18.24l41.74,1C1005.87,418.68,1006.27,419.69,1005.44,420.89Z"/><path class="cls-2" d="M916,551.36l-5.73,8.25-13,18.78-7,10.08h0c-.41.52-.83,1-1.27,1.53-7.69,8.79-20.72,15.31-30.86,15.06l-37.44-.93c-3.17-.08-4.46-2.14-3.33-4.86l54.09-78.75L912.28,504,916,551.1l0,.18Z"/><polygon points="173.18 442.65 159.94 442.65 94.76 588.65 29.71 442.92 29.59 442.65 15.65 442.65 88.11 605.21 88.23 605.47 100.61 605.47 172.9 443.28 173.18 442.65"/><path d="M211.81,482.9c-33.77,0-58.28,26-58.28,61.75,0,17.48,6.23,33.25,17.54,44.41s27.36,17.34,45.14,17.34c18.83,0,35.56-7.23,45.91-19.83l.25-.29L255.06,578l-.34.41c-8.8,10.78-22.4,16.72-38.28,16.72-28.55,0-49.31-19.39-50.65-47.22H269.63v-.45a17,17,0,0,1,.12-1.75,13.25,13.25,0,0,0,.11-1.48C269.86,508.67,245.45,482.9,211.81,482.9ZM166,538c2-25.91,20.8-44,45.78-44,25.2,0,44,18.06,45.78,44Z"/><path d="M350.37,482.9c-21.63,0-38.8,9.31-47.44,25.62v-24.7h-12V605.47H303.4V540.72c0-28.69,17.37-46.51,45.35-46.51,24.92,0,38.64,14.63,38.64,41.19v70.07h12.47v-71c0-16.56-4.59-29.53-13.64-38.54C377.67,487.4,365.27,482.9,350.37,482.9Z"/><path d="M480.17,589a27.24,27.24,0,0,1-18.43,6.59c-14.39,0-22-8.16-22-23.61V494.67h38.4V483.82h-38.4V457.45H427.29v26.37H405.08v10.85h22.21V573.1c0,21.16,12.13,33.3,33.29,33.3,10,0,19.41-3.25,25.07-8.69l.25-.24-5.32-8.88Z"/><path d="M592.3,548.58c0,28.69-16.76,46.51-43.73,46.51-25.37,0-39.34-14.63-39.34-41.19V483.82H496.77v71c0,32.77,18.54,51.57,50.87,51.57,20.48,0,36.8-9.21,45.12-25.35v24.42h12V483.82H592.3Z"/><path d="M683.18,495.13V482.9h-.45c-22,0-37.67,8.85-45.58,25.63V483.82h-12V605.47h12.47V542.1c0-29.55,15.83-47.2,42.34-47.2a12.51,12.51,0,0,1,1.34.11,11.34,11.34,0,0,0,1.44.12Z"/><path d="M739.64,482.9c-33.77,0-58.28,26-58.28,61.75,0,17.48,6.23,33.25,17.54,44.41S726.25,606.4,744,606.4c18.83,0,35.57-7.23,45.92-19.83l.24-.29L782.88,578l-.34.41c-8.8,10.78-22.39,16.72-38.28,16.72-28.54,0-49.31-19.39-50.65-47.22H797.45v-.45a17,17,0,0,1,.13-1.75c0-.52.1-1,.1-1.48C797.68,508.67,773.27,482.9,739.64,482.9ZM693.86,538c2-25.91,20.79-44,45.78-44,25.19,0,44,18.06,45.78,44Z"/></svg>